<svg width="19" height="17" viewBox="0 0 19 17" fill="none" xmlns="http://www.w3.org/2000/svg">
<path fill-rule="evenodd" clip-rule="evenodd" d="M19 8.5C19 8.82199 18.8749 9.13079 18.6522 9.35848C18.4296 9.58616 18.1275 9.71407 17.8126 9.71407H4.05579L9.15435 14.9248C9.26475 15.0377 9.35232 15.1717 9.41206 15.3192C9.47181 15.4667 9.50256 15.6248 9.50256 15.7844C9.50256 15.944 9.47181 16.1021 9.41206 16.2496C9.35232 16.3971 9.26475 16.5311 9.15435 16.644C9.04395 16.7568 8.91289 16.8464 8.76865 16.9075C8.62441 16.9686 8.46982 17 8.31369 17C8.15757 17 8.00297 16.9686 7.85873 16.9075C7.71449 16.8464 7.58343 16.7568 7.47304 16.644L0.348834 9.35956C0.238258 9.24678 0.150529 9.11281 0.0906699 8.96531C0.0308113 8.81781 0 8.65969 0 8.5C0 8.34031 0.0308113 8.18219 0.0906699 8.03469C0.150529 7.88719 0.238258 7.75322 0.348834 7.64044L7.47304 0.356041C7.69599 0.128072 7.99839 0 8.31369 0C8.629 0 8.93139 0.128072 9.15435 0.356041C9.37731 0.584011 9.50256 0.893203 9.50256 1.2156C9.50256 1.538 9.37731 1.84719 9.15435 2.07516L4.05579 7.28593H17.8126C18.1275 7.28593 18.4296 7.41384 18.6522 7.64153C18.8749 7.86921 19 8.17801 19 8.5Z" fill="black"/>
</svg>
