<svg width="17" height="19" viewBox="0 0 17 19" fill="none" xmlns="http://www.w3.org/2000/svg">
<path d="M16.1876 15.4171C14.409 15.3972 12.6846 14.8058 11.2721 13.7313C9.85967 12.6569 8.83489 11.157 8.35091 9.45587C7.86694 7.75472 7.94975 5.94358 8.58698 4.29307C9.2242 2.64255 10.3816 1.24127 11.8863 0.298571C11.126 0.102129 10.3438 0.00181327 9.55823 0C7.02323 0 4.59206 1.00089 2.79954 2.78249C1.00703 4.56408 0 6.98044 0 9.5C0 12.0196 1.00703 14.4359 2.79954 16.2175C4.59206 17.9991 7.02323 19 9.55823 19C10.9943 18.9987 12.4112 18.6716 13.7008 18.0437C14.9904 17.4157 16.1188 16.5035 17 15.3764C16.7301 15.4037 16.4589 15.4173 16.1876 15.4171Z" fill="#19283F"/>
</svg>
