<svg width="5" height="9" viewBox="0 0 5 9" fill="none" xmlns="http://www.w3.org/2000/svg">
<mask id="path-1-inside-1_24_23" fill="white">
<path d="M0.1113 0.105909C0.0399466 0.175149 0 0.268098 0 0.364887C0 0.461676 0.0399466 0.554625 0.1113 0.623865L4.09772 4.5L0.1113 8.37536C0.0399466 8.4446 0 8.53755 0 8.63434C0 8.73113 0.0399466 8.82408 0.1113 8.89332C0.145983 8.92708 0.18745 8.95391 0.233254 8.97224C0.279058 8.99056 0.328271 9 0.377988 9C0.427705 9 0.476918 8.99056 0.522722 8.97224C0.568527 8.95391 0.609994 8.92708 0.644676 8.89332L4.88387 4.77061C4.95833 4.69821 5 4.6011 5 4.5C5 4.3989 4.95833 4.30179 4.88387 4.22939L0.644676 0.106685C0.609994 0.0729221 0.568527 0.046087 0.522722 0.0277637C0.476918 0.00944028 0.427705 0 0.377988 0C0.328271 0 0.279058 0.00944028 0.233254 0.0277637C0.18745 0.046087 0.145983 0.0729221 0.1113 0.106685V0.105909Z"/>
</mask>
<path d="M0.1113 0.105909C0.0399466 0.175149 0 0.268098 0 0.364887C0 0.461676 0.0399466 0.554625 0.1113 0.623865L4.09772 4.5L0.1113 8.37536C0.0399466 8.4446 0 8.53755 0 8.63434C0 8.73113 0.0399466 8.82408 0.1113 8.89332C0.145983 8.92708 0.18745 8.95391 0.233254 8.97224C0.279058 8.99056 0.328271 9 0.377988 9C0.427705 9 0.476918 8.99056 0.522722 8.97224C0.568527 8.95391 0.609994 8.92708 0.644676 8.89332L4.88387 4.77061C4.95833 4.69821 5 4.6011 5 4.5C5 4.3989 4.95833 4.30179 4.88387 4.22939L0.644676 0.106685C0.609994 0.0729221 0.568527 0.046087 0.522722 0.0277637C0.476918 0.00944028 0.427705 0 0.377988 0C0.328271 0 0.279058 0.00944028 0.233254 0.0277637C0.18745 0.046087 0.145983 0.0729221 0.1113 0.106685V0.105909Z" fill="black"/>
<path d="M0.1113 0.105909H1.1113V-2.2579L-0.585099 -0.611746L0.1113 0.105909ZM0 0.364887H-1H0ZM0.1113 0.623865L0.80842 -0.09309L0.807699 -0.0937903L0.1113 0.623865ZM4.09772 4.5L4.79477 5.21702L5.53226 4.50007L4.79484 3.78305L4.09772 4.5ZM0.1113 8.37536L0.807699 9.09302L0.808348 9.09238L0.1113 8.37536ZM0 8.63434H1H0ZM0.1113 8.89332L0.808842 8.17677L0.807699 8.17566L0.1113 8.89332ZM0.644676 8.89332L-0.052512 8.17643L-0.0528649 8.17677L0.644676 8.89332ZM4.88387 4.77061L4.18673 4.05368L4.18669 4.05372L4.88387 4.77061ZM4.88387 4.22939L4.18669 4.94628L4.18673 4.94632L4.88387 4.22939ZM0.644676 0.106685L-0.0528649 0.82323L-0.0525118 0.823573L0.644676 0.106685ZM0.1113 0.106685H-0.8887V2.47575L0.808841 0.82323L0.1113 0.106685ZM-0.585099 -0.611746C-0.844579 -0.359951 -1 -0.0105081 -1 0.364887L1 0.364887C1 0.546705 0.924472 0.71025 0.807699 0.823565L-0.585099 -0.611746ZM-1 0.364887C-1 0.740283 -0.844579 1.08973 -0.585099 1.34152L0.807699 -0.0937903C0.924472 0.0195239 1 0.183069 1 0.364887H-1ZM-0.58582 1.34082L3.4006 5.21695L4.79484 3.78305L0.80842 -0.0930896L-0.58582 1.34082ZM3.40067 3.78298L-0.585749 7.65834L0.808348 9.09238L4.79477 5.21702L3.40067 3.78298ZM-0.585099 7.65771C-0.844578 7.9095 -1 8.25894 -1 8.63434H1C1 8.81616 0.924471 8.9797 0.807699 9.09302L-0.585099 7.65771ZM-1 8.63434C-1 9.00973 -0.84458 9.35918 -0.585099 9.61097L0.807699 8.17566C0.924473 8.28898 1 8.45252 1 8.63434L-1 8.63434ZM-0.586241 9.60986C-0.455939 9.73671 -0.303105 9.83472 -0.138166 9.9007L0.604674 8.04377C0.678005 8.07311 0.747904 8.11745 0.808841 8.17677L-0.586241 9.60986ZM-0.138166 9.9007C0.0267121 9.96666 0.202063 10 0.377988 10V8C0.45448 8 0.531405 8.01446 0.604674 8.04377L-0.138166 9.9007ZM0.377988 10C0.553912 10 0.729263 9.96666 0.894142 9.9007L0.151303 8.04377C0.224573 8.01446 0.301497 8 0.377988 8V10ZM0.894142 9.9007C1.05908 9.83472 1.21192 9.73671 1.34222 9.60986L-0.0528649 8.17677C0.00807256 8.11745 0.0779716 8.07311 0.151303 8.04377L0.894142 9.9007ZM1.34186 9.6102L5.58106 5.4875L4.18669 4.05372L-0.0525119 8.17643L1.34186 9.6102ZM5.58102 5.48754C5.84317 5.23262 6 4.87932 6 4.5H4C4 4.32289 4.07348 4.1638 4.18673 4.05368L5.58102 5.48754ZM6 4.5C6 4.12068 5.84317 3.76738 5.58102 3.51246L4.18673 4.94632C4.07348 4.8362 4 4.67711 4 4.5H6ZM5.58106 3.5125L1.34186 -0.610203L-0.0525118 0.823573L4.18669 4.94628L5.58106 3.5125ZM1.34222 -0.60986C1.21192 -0.736707 1.05908 -0.83472 0.894142 -0.900701L0.151303 0.956229C0.0779716 0.926894 0.00807256 0.882551 -0.0528649 0.82323L1.34222 -0.60986ZM0.894142 -0.900701C0.72927 -0.966656 0.55392 -1 0.377988 -1V1C0.30149 1 0.224566 0.985537 0.151303 0.956229L0.894142 -0.900701ZM0.377988 -1C0.202055 -1 0.0267052 -0.966656 -0.138166 -0.900701L0.604674 0.956229C0.531412 0.985536 0.454487 1 0.377988 1V-1ZM-0.138166 -0.900701C-0.303105 -0.83472 -0.455939 -0.736707 -0.586241 -0.60986L0.808841 0.82323C0.747904 0.882551 0.678005 0.926894 0.604674 0.956229L-0.138166 -0.900701ZM1.1113 0.106685V0.105909H-0.8887V0.106685H1.1113Z" fill="black" mask="url(#path-1-inside-1_24_23)"/>
</svg>
