<svg width="19" height="19" viewBox="0 0 19 19" fill="none" xmlns="http://www.w3.org/2000/svg">
<path d="M9.5 0C4.20714 0 0 4.20714 0 9.5C0 14.7929 4.20714 19 9.5 19C14.7929 19 19 14.7929 19 9.5C19 4.20714 14.7929 0 9.5 0ZM9.5 17.6429C5.02143 17.6429 1.35714 13.9786 1.35714 9.5C1.35714 5.02143 5.02143 1.35714 9.5 1.35714C13.9786 1.35714 17.6429 5.02143 17.6429 9.5C17.6429 13.9786 13.9786 17.6429 9.5 17.6429Z" fill="black"/>
<path d="M13.1643 14.25L9.5 10.5857L5.83571 14.25L4.75 13.1643L8.41429 9.5L4.75 5.83571L5.83571 4.75L9.5 8.41429L13.1643 4.75L14.25 5.83571L10.5857 9.5L14.25 13.1643L13.1643 14.25Z" fill="black"/>
</svg>
