<svg width="41" height="36" viewBox="0 0 41 36" fill="none" xmlns="http://www.w3.org/2000/svg">
<path d="M37.172 24.6204C38.121 21.9508 38.415 19.0923 38.0293 16.2855C37.6436 13.4786 36.5896 10.8054 34.9558 8.49066C33.322 6.17594 31.1562 4.2874 28.6406 2.98388C26.1251 1.68037 23.3332 1 20.5 1C17.6668 1 14.8749 1.68037 12.3594 2.98388C9.84379 4.2874 7.67802 6.17594 6.04422 8.49066C4.41042 10.8054 3.35636 13.4786 2.97069 16.2855C2.58503 19.0923 2.87904 21.9508 3.828 24.6204M1 24.6194H40H1ZM5.291 29.8014H20.997H5.291ZM25.39 29.8014H28.372H25.39ZM32.764 29.8014H35.746H32.764ZM11.106 34.9824H30.863H11.106Z" fill="#19283F"/>
<path d="M37.172 24.6204C38.121 21.9508 38.415 19.0923 38.0293 16.2855C37.6436 13.4786 36.5896 10.8054 34.9558 8.49066C33.322 6.17594 31.1562 4.2874 28.6406 2.98388C26.1251 1.68037 23.3332 1 20.5 1C17.6668 1 14.8749 1.68037 12.3594 2.98388C9.84379 4.2874 7.67802 6.17594 6.04422 8.49066C4.41042 10.8054 3.35636 13.4786 2.97069 16.2855C2.58503 19.0923 2.87904 21.9508 3.828 24.6204M1 24.6194H40M5.291 29.8014H20.997M25.39 29.8014H28.372M32.764 29.8014H35.746M11.106 34.9824H30.863" stroke="black" stroke-linecap="round" stroke-linejoin="round"/>
</svg>
